<svg width="41" height="40" viewBox="0 0 41 40" fill="none" xmlns="http://www.w3.org/2000/svg">
<path fill-rule="evenodd" clip-rule="evenodd" d="M20.5 0C9.64778 0 0.857986 9.17638 0.857986 20.5059C0.857986 29.5797 6.48051 37.2438 14.2882 39.9608C15.2703 40.1403 15.6386 39.5251 15.6386 38.9868C15.6386 38.4998 15.614 36.8849 15.614 35.1676C10.679 36.116 9.40226 33.9116 9.00942 32.7581C8.78845 32.1686 7.8309 30.3487 6.99611 29.8617C6.30864 29.4772 5.32654 28.5288 6.97156 28.5032C8.51837 28.4775 9.62323 29.9898 9.99152 30.605C11.7593 33.7065 14.5828 32.835 15.7123 32.2968C15.8841 30.9639 16.3997 30.0667 16.9644 29.5541C12.5941 29.0414 8.02732 27.2728 8.02732 19.4293C8.02732 17.1993 8.78845 15.3538 10.0406 13.9184C9.84421 13.4057 9.15673 11.3039 10.237 8.48431C10.237 8.48431 11.8821 7.94603 15.6386 10.5862C17.21 10.1248 18.8795 9.89408 20.5491 9.89408C22.2187 9.89408 23.8882 10.1248 25.4596 10.5862C29.2161 7.92039 30.8612 8.48431 30.8612 8.48431C31.9415 11.3039 31.254 13.4057 31.0576 13.9184C32.3098 15.3538 33.0709 17.1737 33.0709 19.4293C33.0709 27.2984 28.4796 29.0414 24.1092 29.5541C24.8212 30.1949 25.435 31.4253 25.435 33.3477C25.435 36.0903 25.4105 38.2947 25.4105 38.9868C25.4105 39.5251 25.7788 40.1659 26.7609 39.9608C30.6601 38.5865 34.0484 35.9702 36.4488 32.4802C38.8491 28.9903 40.1408 24.8023 40.142 20.5059C40.142 9.17638 31.3522 0 20.5 0Z" fill="#792F92"/>
</svg>
