<svg width="37" height="30" viewBox="0 0 37 30" fill="none" xmlns="http://www.w3.org/2000/svg">
<path d="M6.70842 0.5C5.14475 0.5 3.64514 1.11107 2.53946 2.19878C1.43378 3.28649 0.812622 4.76174 0.812622 6.3V6.8829L18.5 16.2528L36.1874 6.8858V6.3C36.1874 4.76174 35.5662 3.28649 34.4605 2.19878C33.3549 1.11107 31.8553 0.5 30.2916 0.5H6.70842ZM36.1874 10.1773L19.1987 19.176C18.9839 19.2897 18.7439 19.3492 18.5 19.3492C18.2561 19.3492 18.0161 19.2897 17.8014 19.176L0.812622 10.1773V23.7C0.812622 25.2383 1.43378 26.7135 2.53946 27.8012C3.64514 28.8889 5.14475 29.5 6.70842 29.5H30.2916C31.8553 29.5 33.3549 28.8889 34.4605 27.8012C35.5662 26.7135 36.1874 25.2383 36.1874 23.7V10.1773Z" fill="#DD0404"/>
</svg>
