<svg width="39" height="40" viewBox="0 0 39 40" fill="none" xmlns="http://www.w3.org/2000/svg">
<path d="M19.2095 39.5C8.6001 39.5 0 30.7699 0 20C0 9.23015 8.6001 0.5 19.2095 0.5C29.8189 0.5 38.419 9.23015 38.419 20C38.419 30.7699 29.8189 39.5 19.2095 39.5ZM13.2354 22.2815L13.2603 22.2679L14.9316 27.8644C15.1467 28.4708 15.4425 28.58 15.8017 28.5293C16.1629 28.4806 16.3531 28.2836 16.5893 28.0535L18.8714 25.8149L23.7699 29.4965C24.665 29.9977 25.3085 29.7383 25.5314 28.6541L28.7144 13.4012C29.0659 11.9816 28.4512 11.4122 27.3659 11.8646L8.66925 19.1966C7.39374 19.7153 7.40143 20.4407 8.43874 20.7625L13.2354 22.2834V22.2815Z" fill="#1F5DFB"/>
</svg>
